# xmcd
#
# Track frame offsets:
#	150
#	14030
#	32505
#	47722
#	54077
#	78675
#	98910
#	114272
#	136560
#	149965
#	167785
#	181272
#	200065
#
# Disc length: 2917 seconds
#
# Revision: 2
# Processed by: cddbd v1.5.2PL0 Copyright (c) Steve Scherf et al.
# Submitted via: EasyCDDAExtractor 2011.0.0.0
#
DISCID=b20b630d
DTITLE=Neil Sedaka - Timeless Classics Live
DYEAR=1900
DGENRE=Country
TTITLE0=I'm A Somg (Sing Me)
TTITLE1=Standing On The Inside
TTITLE2=Laughter In The Rain
TTITLE3=Oh Carol
TTITLE4=Medley: Stairway To Heaven - Little Devil - Happy Birthday Sweet Sixte
TTITLE4=en - Calender Girl
TTITLE5=New York City Blues
TTITLE6=Love Will Keep Us Together
TTITLE7=Solitaire
TTITLE8=Lonely Night (Angel Face)
TTITLE9=Sad Eyes
TTITLE10=Bad Blood
TTITLE11=The Immigrant
TTITLE12=Breaking Up Is Hard To Do
EXTD=
EXTT0=
EXTT1=
EXTT2=
EXTT3=
EXTT4=
EXTT5=
EXTT6=
EXTT7=
EXTT8=
EXTT9=
EXTT10=
EXTT11=
EXTT12=
PLAYORDER=
